<?xml version="1.0" encoding="UTF-8" standalone="no"?>
<svg
   xmlns:dc="http://purl.org/dc/elements/1.1/"
   xmlns:cc="http://creativecommons.org/ns#"
   xmlns:rdf="http://www.w3.org/1999/02/22-rdf-syntax-ns#"
   xmlns:svg="http://www.w3.org/2000/svg"
   xmlns="http://www.w3.org/2000/svg"
   xmlns:sodipodi="http://sodipodi.sourceforge.net/DTD/sodipodi-0.dtd"
   xmlns:inkscape="http://www.inkscape.org/namespaces/inkscape"
   width="1132.353"
   height="300"
   overflow="hidden"
   version="1.1"
   id="svg41"
   sodipodi:docname="DQHubLogoRemake.svg"
   inkscape:version="1.0.1 (3bc2e813f5, 2020-09-07)">
  <metadata
     id="metadata45">
    <rdf:RDF>
      <cc:Work
         rdf:about="">
        <dc:format>image/svg+xml</dc:format>
        <dc:type
           rdf:resource="http://purl.org/dc/dcmitype/StillImage" />
        <dc:title />
      </cc:Work>
    </rdf:RDF>
  </metadata>
  <sodipodi:namedview
     pagecolor="#ffffff"
     bordercolor="#666666"
     borderopacity="1"
     objecttolerance="10"
     gridtolerance="10"
     guidetolerance="10"
     inkscape:pageopacity="0"
     inkscape:pageshadow="2"
     inkscape:window-width="1920"
     inkscape:window-height="1001"
     id="namedview43"
     showgrid="false"
     inkscape:zoom="0.76047845"
     inkscape:cx="848.03798"
     inkscape:cy="131.30432"
     inkscape:window-x="-9"
     inkscape:window-y="-9"
     inkscape:window-maximized="1"
     inkscape:current-layer="layer5"
     inkscape:document-rotation="0"
     fit-margin-top="0"
     fit-margin-left="0"
     fit-margin-right="0"
     fit-margin-bottom="0" />
  <defs
     id="defs5">
    <rect
       x="390.54361"
       y="169.63005"
       width="833.68567"
       height="238.00806"
       id="rect876" />
    <clipPath
       id="clip0">
      <path
         d="M 0,0 H 1280 V 720 H 0 Z"
         fill-rule="evenodd"
         clip-rule="evenodd"
         id="path2" />
    </clipPath>
  </defs>
  <g
     inkscape:groupmode="layer"
     id="g181"
     inkscape:label="logo"
     style="display:inline"
     transform="translate(-77,-131)">
    <path
       style="fill:#003d59;fill-opacity:1;stroke:#003d59;stroke-opacity:1"
       d="m 353.5,392 c -11.91542,0 -21.5,9.58458 -21.5,21.5 0,6.87751 3.2039,12.96492 8.19531,16.89453 9.10563,-0.10264 18.80004,-0.23943 27.01953,-0.31055 C 371.97615,426.14738 375,420.19193 375,413.5 375,401.58458 365.41542,392 353.5,392 Z"
       id="path1049" />
    <path
       style="fill:#003d59;fill-opacity:1;stroke:#003d59;stroke-opacity:1"
       d="m 224.5,392 c -11.91542,0 -21.5,9.58458 -21.5,21.5 0,6.94146 3.26643,13.07473 8.33789,17 h 26.32422 C 242.73357,426.57473 246,420.44146 246,413.5 246,401.58458 236.41542,392 224.5,392 Z"
       id="path1047" />
    <path
       style="fill:#a8bd3a;fill-opacity:1;stroke:#a8bd3a;stroke-opacity:1"
       d="M 260.95898,324.93359 C 251.03067,333.09361 238.32976,338 224.5,338 c -1.15362,0 -2.29662,-0.0441 -3.43359,-0.11133 l 2.14257,47.14453 C 223.63732,385.0139 224.06705,385 224.5,385 c 15.69858,0 28.5,12.80142 28.5,28.5 0,6.36301 -2.10369,12.24845 -5.65039,17 h 78.48242 c 1.40006,0 3.22093,-0.0224 4.79688,-0.0312 C 327.09591,425.7225 325,419.84944 325,413.5 c 0,-6.3756 2.11048,-12.27285 5.66992,-17.0293 z"
       id="path1045" />
    <path
       style="fill:#d74227;fill-opacity:1;stroke:#d74227;stroke-opacity:1"
       d="m 167.88281,270.5332 -40.58984,3.69336 C 127.74988,276.24689 128,278.34484 128,280.5 c 0,15.69858 -12.80151,28.5 -28.5,28.5 -8.842986,0 -16.765872,-4.06248 -22,-10.41602 v 82.24805 c 0,27.431 22.236969,49.66797 49.66797,49.66797 h 74.48242 C 198.10369,425.74845 196,419.86301 196,413.5 c 0,-12.83247 8.55604,-23.7243 20.25391,-27.27539 l -2.23243,-49.19922 C 187.29881,332.08559 167,308.63461 167,280.5 c 0,-3.40076 0.31432,-6.72687 0.88281,-9.9668 z"
       id="path1043" />
    <path
       style="fill:#003d59;fill-opacity:1;stroke:#003d59;stroke-opacity:1"
       d="M 99.5,259 C 87.584349,259 78,268.58454 78,280.5 78,292.41546 87.584349,302 99.5,302 111.41531,302 121,292.41542 121,280.5 121,268.58458 111.41531,259 99.5,259 Z"
       id="path1041" />
    <path
       style="fill:#003d59;fill-opacity:1;stroke:#003d59;stroke-opacity:1"
       d="m 224.5,230 c -27.93141,0 -50.5,22.56859 -50.5,50.5 0,27.93141 22.56859,50.5 50.5,50.5 27.93141,0 50.5,-22.56859 50.5,-50.5 0,-12.27235 -4.35893,-23.50775 -11.61328,-32.25 -4.87536,5.92271 -8.9929,10.02371 -13.73438,16.84961 -5.83705,8.40555 -13.65698,19.78329 -19.44336,29.49023 -5.68558,9.53948 -12.83936,25.11828 -15.59375,30.50391 -4.29897,0.38031 -1.44633,-0.093 -5.77343,0.68359 -2.33199,-2.72294 -7.93727,-9.78826 -12.94141,-15.11523 -5.22782,-5.56506 -12.44502,-13.57092 -17.5,-17.36328 l 7.12891,-1.72461 c 6.19042,4.6442 10.36903,8.85998 15.47461,14.29492 3.62063,3.85421 7.00874,7.92572 9.73242,11.22852 3.35003,-6.93435 8.72801,-18.15401 13.45898,-26.0918 v -0.002 c 5.97363,-10.02106 13.85409,-21.46804 19.70703,-29.89649 l 0.002,-0.002 c 5.27099,-7.58823 9.67439,-11.89533 14.61523,-17.95313 C 249.54985,234.97958 237.61724,230 224.5,230 Z"
       id="path1039" />
    <path
       style="fill:#cf3587;fill-opacity:1;stroke:#cf3587;stroke-opacity:1"
       d="M 77.554688,171.9043 C 77.527364,175.20317 77.5,178.50711 77.5,181.16797 v 81.24805 C 82.734128,256.06248 90.657014,252 99.5,252 c 10.9877,0 20.54953,6.27533 25.30273,15.42188 l 44.8086,-4.07618 c 2.57206,-8.21705 6.94758,-15.63824 12.65234,-21.8164 L 113.10352,173.0332 C 108.37186,176.76612 102.44164,179 96,179 c -7.066659,0 -13.517808,-2.68789 -18.445312,-7.0957 z"
       id="path1037" />
    <path
       style="fill:#003d59;fill-opacity:1;stroke:#003d59;stroke-opacity:1"
       d="M 374.22656,170.01758 C 369.02349,175.53904 361.65572,179 353.5,179 c -6.23019,0 -11.99876,-2.02217 -16.69727,-5.43555 l -69.39648,68.70313 C 276.47569,252.43517 282,265.82971 282,280.5 c 0,15.36994 -6.06767,29.33552 -15.91992,39.66016 l 69.4414,71.25781 C 340.43192,387.41076 346.6921,385 353.5,385 c 8.80662,0 16.70092,4.02917 21.93555,10.33789 0.0279,-5.05241 0.0645,-10.58103 0.0645,-14.50586 V 181.16797 c 0,-3.83591 -0.45036,-7.56423 -1.27344,-11.15039 z"
       id="path1035" />
    <path
       style="fill:#003d59;fill-opacity:1;stroke:#003d59;stroke-opacity:1"
       d="M 340.18359,133.61328 C 335.19851,137.54319 332,143.62756 332,150.5 c 0,11.91542 9.58458,21.5 21.5,21.5 7.66849,0 14.36585,-3.97435 18.16992,-9.98047 -5.6838,-13.59034 -17.23446,-24.11065 -31.48633,-28.40625 z"
       id="path1033" />
    <path
       style="fill:#003d59;fill-opacity:1;stroke:#003d59;stroke-opacity:1"
       d="m 106.06055,131.60938 c -7.208187,0.0533 -14.178219,0.10186 -20.337894,0.13281 -3.289375,1.88558 -6.020319,4.65359 -7.90625,7.99804 -0.0071,6.2536 -0.08104,13.75974 -0.160156,21.25 C 81.244734,167.57709 88.109161,172 96,172 c 11.60073,0 21,-9.54672 21,-21.5 0,-8.19661 -4.42097,-15.25944 -10.93945,-18.89062 z"
       id="path1031" />
    <path
       style="fill:#003d59;fill-opacity:1;stroke:#003d59;stroke-opacity:1"
       d="m 127.16797,131.5 c -2.99303,0 -6.59109,0.0164 -10.30078,0.0371 C 121.30028,136.58679 124,143.23837 124,150.5 c 0,6.60588 -2.23632,12.70467 -5.97656,17.55469 l 69.29492,68.6289 C 197.35035,228.15855 210.32897,223 224.5,223 c 14.52954,0 27.80423,5.42315 37.93555,14.33789 l 69.24023,-68.54883 C 327.51448,163.83339 325,157.45245 325,150.5 c 0,-7.10522 2.62863,-13.61135 6.95508,-18.61133 -2.0079,-0.24703 -4.04836,-0.38867 -6.12305,-0.38867 z"
       id="path179" />
  </g>
  <g
     inkscape:groupmode="layer"
     id="layer5"
     inkscape:label="text"
     style="display:inline"
     transform="translate(-77,-131)">
    <text
       xml:space="preserve"
       style="font-style:normal;font-weight:normal;font-size:40px;line-height:1.25;font-family:sans-serif;fill:#000000;fill-opacity:1;stroke:none"
       x="487.85077"
       y="186.72455"
       id="text882"><tspan
         sodipodi:role="line"
         id="tspan880"
         x="487.85077"
         y="186.72455" /></text>
    <g
       aria-label="Government
   ata"
       transform="scale(0.99305713,1.0069914)"
       id="text886"
       style="font-style:normal;font-weight:normal;font-size:106.395px;line-height:1.25;font-family:sans-serif;fill:#003d59;fill-opacity:1;stroke:none;stroke-width:1.24681">
      <path
         d="m 460.48345,174.37946 c -6.49009,-2.34069 -13.29937,-3.61743 -20.32144,-3.61743 -24.36446,0 -39.68534,14.68251 -39.68534,37.34464 0,22.66214 15.0017,37.13186 39.47255,37.13186 8.19241,0 15.74646,-1.27674 22.55574,-3.83022 v -37.02546 h -25.42841 v 8.08602 h 15.42728 v 22.44934 c -3.61743,1.38314 -7.44765,2.1279 -11.70345,2.1279 -17.98076,0 -29.47142,-11.38426 -29.47142,-28.72665 0,-17.76796 11.59706,-29.47141 29.36502,-29.47141 6.59649,0 12.7674,1.48953 18.29994,4.2558 z"
         style="font-style:normal;font-variant:normal;font-weight:normal;font-stretch:normal;font-size:106.395px;font-family:'Humanist 777';-inkscape-font-specification:'Humanist 777, ';fill:#003d59;fill-opacity:1;stroke-width:1.24681"
         id="path882" />
      <path
         d="m 501.65816,190.23231 c -16.17204,0 -26.38596,10.53311 -26.38596,27.98189 0,17.34238 10.21392,27.98188 26.38596,27.98188 16.17204,0 26.49236,-10.6395 26.49236,-27.98188 0,-17.44878 -10.21392,-27.98189 -26.49236,-27.98189 z m 0.1064,7.55405 c 9.46915,0 15.95925,7.76683 15.95925,20.32144 0,12.44822 -6.4901,20.21505 -15.95925,20.21505 -9.36276,0 -15.95925,-7.97962 -15.95925,-20.21505 0,-12.34182 6.59649,-20.32144 15.95925,-20.32144 z"
         style="font-style:normal;font-variant:normal;font-weight:normal;font-stretch:normal;font-size:106.395px;font-family:'Humanist 777';-inkscape-font-specification:'Humanist 777, ';fill:#003d59;fill-opacity:1;stroke-width:1.24681"
         id="path884" />
      <path
         d="m 534.42781,191.50905 18.40633,53.41029 h 11.49066 l 18.93831,-53.41029 h -9.68194 l -14.57612,44.57951 -13.93774,-44.57951 z"
         style="font-style:normal;font-variant:normal;font-weight:normal;font-stretch:normal;font-size:106.395px;font-family:'Humanist 777';-inkscape-font-specification:'Humanist 777, ';fill:#003d59;fill-opacity:1;stroke-width:1.24681"
         id="path886" />
      <path
         d="m 626.5658,213.9584 h -28.30107 c 1.06395,-10.53311 6.80928,-16.59762 14.57611,-16.59762 7.97963,0 12.98019,5.85172 13.72496,16.59762 z m 9.25636,2.55348 c 0,-16.49123 -8.61799,-26.27957 -22.44934,-26.27957 -14.68251,0 -24.89643,10.85229 -24.89643,27.44991 0,17.76797 10.10752,28.51386 26.17317,28.51386 6.2773,0 11.91624,-0.85116 16.9168,-2.97906 v -8.5116 c -4.89417,2.55348 -9.68194,3.93662 -14.7889,3.93662 -11.17148,0 -17.98076,-6.70289 -18.72552,-18.08715 h 37.77022 z"
         style="font-style:normal;font-variant:normal;font-weight:normal;font-stretch:normal;font-size:106.395px;font-family:'Humanist 777';-inkscape-font-specification:'Humanist 777, ';fill:#003d59;fill-opacity:1;stroke-width:1.24681"
         id="path888" />
      <path
         d="m 675.72028,190.87068 c -1.59592,-0.21279 -2.97906,-0.31918 -4.1494,-0.31918 -7.02207,0 -12.44821,4.2558 -15.42727,11.91624 v -10.95869 h -8.93718 v 53.41029 h 9.89473 V 218.1078 c 0,-11.91624 5.21336,-18.40633 14.15053,-18.40633 1.38314,0 2.65988,0.21279 4.14941,0.63837 z"
         style="font-style:normal;font-variant:normal;font-weight:normal;font-stretch:normal;font-size:106.395px;font-family:'Humanist 777';-inkscape-font-specification:'Humanist 777, ';fill:#003d59;fill-opacity:1;stroke-width:1.24681"
         id="path890" />
      <path
         d="m 731.57745,212.68166 c 0,-14.78891 -6.3837,-22.44935 -18.29994,-22.44935 -8.4052,0 -14.68251,3.72383 -18.61912,11.17148 v -9.89474 h -9.04358 v 53.41029 h 9.89474 v -27.23712 c 0,-12.23542 5.63893,-18.93831 14.25693,-18.93831 8.19241,0 11.91624,5.31975 11.91624,16.17204 v 30.00339 h 9.89473 z"
         style="font-style:normal;font-variant:normal;font-weight:normal;font-stretch:normal;font-size:106.395px;font-family:'Humanist 777';-inkscape-font-specification:'Humanist 777, ';fill:#003d59;fill-opacity:1;stroke-width:1.24681"
         id="path892" />
      <path
         d="m 790.52027,201.93576 c -2.76627,-7.55404 -8.29881,-11.59705 -15.74646,-11.59705 -7.66044,0 -13.83135,3.83022 -17.66157,11.06508 v -9.89474 h -9.04357 v 53.41029 h 9.78834 v -27.23712 c 0,-12.02263 5.74533,-18.61912 13.29937,-18.61912 7.76684,0 10.7459,5.00056 10.7459,15.85285 v 30.00339 h 9.89473 v -27.23712 c 0,-12.02263 5.42615,-18.61912 13.72496,-18.61912 7.12846,0 10.32031,5.21335 10.32031,15.85285 v 30.00339 h 9.89474 v -32.23768 c 0,-14.68251 -6.06452,-22.34295 -17.1296,-22.34295 -7.87323,0 -14.15053,3.93661 -18.08715,11.59705 z"
         style="font-style:normal;font-variant:normal;font-weight:normal;font-stretch:normal;font-size:106.395px;font-family:'Humanist 777';-inkscape-font-specification:'Humanist 777, ';fill:#003d59;fill-opacity:1;stroke-width:1.24681"
         id="path894" />
      <path
         d="m 876.16811,213.9584 h -28.30107 c 1.06395,-10.53311 6.80928,-16.59762 14.57611,-16.59762 7.97963,0 12.98019,5.85172 13.72496,16.59762 z m 9.25636,2.55348 c 0,-16.49123 -8.61799,-26.27957 -22.44934,-26.27957 -14.68251,0 -24.89643,10.85229 -24.89643,27.44991 0,17.76797 10.10752,28.51386 26.17317,28.51386 6.2773,0 11.91624,-0.85116 16.9168,-2.97906 v -8.5116 c -4.89417,2.55348 -9.68194,3.93662 -14.7889,3.93662 -11.17148,0 -17.98076,-6.70289 -18.72552,-18.08715 h 37.77022 z"
         style="font-style:normal;font-variant:normal;font-weight:normal;font-stretch:normal;font-size:106.395px;font-family:'Humanist 777';-inkscape-font-specification:'Humanist 777, ';fill:#003d59;fill-opacity:1;stroke-width:1.24681"
         id="path896" />
      <path
         d="m 942.77139,212.68166 c 0,-14.78891 -6.3837,-22.44935 -18.29994,-22.44935 -8.4052,0 -14.68251,3.72383 -18.61912,11.17148 v -9.89474 h -9.04358 v 53.41029 h 9.89474 v -27.23712 c 0,-12.23542 5.63893,-18.93831 14.25693,-18.93831 8.19241,0 11.91623,5.31975 11.91623,16.17204 v 30.00339 h 9.89474 z"
         style="font-style:normal;font-variant:normal;font-weight:normal;font-stretch:normal;font-size:106.395px;font-family:'Humanist 777';-inkscape-font-specification:'Humanist 777, ';fill:#003d59;fill-opacity:1;stroke-width:1.24681"
         id="path898" />
      <path
         d="m 973.41311,175.01783 -9.57555,3.29824 v 13.19298 h -11.06508 v 7.55405 h 10.7459 v 28.62025 c 0,12.55461 3.93661,18.19355 15.10809,18.19355 2.65987,0 5.31975,-0.31919 8.08602,-1.06395 l -0.1064,-7.76684 c -2.1279,0.74477 -3.93661,1.17035 -5.42614,1.17035 -5.85173,0 -7.76684,-3.61743 -7.76684,-11.49066 v -27.6627 h 12.7674 v -7.55405 h -12.7674 z"
         style="font-style:normal;font-variant:normal;font-weight:normal;font-stretch:normal;font-size:106.395px;font-family:'Humanist 777';-inkscape-font-specification:'Humanist 777, ';fill:#003d59;fill-opacity:1;stroke-width:1.24681"
         id="path900" />
      <path
         d="m 515.03253,346.09562 c 0,-14.78891 -6.59649,-22.23656 -19.89586,-22.23656 -6.4901,0 -12.34182,1.17035 -17.87436,3.83022 l 0.1064,8.08602 c 5.31974,-2.97906 10.32031,-4.46859 14.89529,-4.46859 8.29881,0 13.19298,4.89417 13.19298,13.19298 v 1.06395 h -6.91567 c -18.19355,0 -27.6627,6.4901 -27.6627,17.98076 0,9.25636 6.80928,15.74646 17.0232,15.74646 8.08602,0 14.15053,-3.19185 18.29994,-9.68195 v 8.93718 h 8.83078 z m -15.85285,6.06451 h 6.2773 v 3.93662 c 0,10.00113 -6.17091,16.06564 -15.00169,16.06564 -5.85173,0 -9.68195,-3.93661 -9.68195,-9.14997 0,-6.91567 6.3837,-10.85229 18.40634,-10.85229 z"
         style="font-style:normal;font-variant:normal;font-weight:normal;font-stretch:normal;font-size:106.395px;font-family:'Humanist 777';-inkscape-font-specification:'Humanist 777, ';fill:#003d59;fill-opacity:1;stroke-width:1.24681"
         id="path902" />
      <path
         d="m 545.78067,308.64458 -9.57555,3.29824 v 13.19298 h -11.06508 v 7.55405 h 10.7459 v 28.62025 c 0,12.55461 3.93661,18.19355 15.10809,18.19355 2.65987,0 5.31975,-0.31919 8.08602,-1.06395 l -0.1064,-7.76684 c -2.1279,0.74477 -3.93661,1.17035 -5.42614,1.17035 -5.85173,0 -7.76684,-3.61743 -7.76684,-11.49066 v -27.6627 h 12.7674 v -7.55405 h -12.7674 z"
         style="font-style:normal;font-variant:normal;font-weight:normal;font-stretch:normal;font-size:106.395px;font-family:'Humanist 777';-inkscape-font-specification:'Humanist 777, ';fill:#003d59;fill-opacity:1;stroke-width:1.24681"
         id="path904" />
      <path
         d="m 610.14956,346.09562 c 0,-14.78891 -6.59649,-22.23656 -19.89586,-22.23656 -6.4901,0 -12.34182,1.17035 -17.87436,3.83022 l 0.10639,8.08602 c 5.31975,-2.97906 10.32032,-4.46859 14.8953,-4.46859 8.29881,0 13.19298,4.89417 13.19298,13.19298 v 1.06395 h -6.91567 c -18.19355,0 -27.6627,6.4901 -27.6627,17.98076 0,9.25636 6.80928,15.74646 17.0232,15.74646 8.08602,0 14.15053,-3.19185 18.29994,-9.68195 v 8.93718 h 8.83078 z m -15.85285,6.06451 h 6.2773 v 3.93662 c 0,10.00113 -6.17091,16.06564 -15.00169,16.06564 -5.85173,0 -9.68195,-3.93661 -9.68195,-9.14997 0,-6.91567 6.3837,-10.85229 18.40634,-10.85229 z"
         style="font-style:normal;font-variant:normal;font-weight:normal;font-stretch:normal;font-size:106.395px;font-family:'Humanist 777';-inkscape-font-specification:'Humanist 777, ';fill:#003d59;fill-opacity:1;stroke-width:1.24681"
         id="path906" />
    </g>
    <text
       xml:space="preserve"
       style="font-style:normal;font-weight:normal;font-size:40px;line-height:1.25;font-family:sans-serif;fill:#000000;fill-opacity:1;stroke:none"
       x="518.09491"
       y="504.94528"
       id="text910"><tspan
         sodipodi:role="line"
         id="tspan908"
         x="518.09491"
         y="504.94528" /></text>
    <g
       aria-label="D      Quality Hub
"
       transform="scale(0.99305714,1.0069914)"
       id="text886-0"
       style="font-style:normal;font-weight:normal;font-size:106.395px;line-height:1.25;font-family:sans-serif;fill:#003d59;fill-opacity:1;stroke:none;stroke-width:1.24681">
      <path
         d="m 414.82205,316.11114 v 51.48313 h 8.41601 q 12.26036,0 19.0659,-6.80554 6.80554,-6.80554 6.80554,-19.0659 0,-12.46817 -6.80554,-19.01395 -6.75359,-6.59774 -19.48151,-6.59774 z m -14.6501,-10.96159 h 21.14393 q 9.40307,0 16.05276,1.29876 6.70164,1.29877 10.9616,4.00021 7.94845,5.03921 11.8967,12.93572 4.0002,7.8965 4.0002,18.54639 0,10.64989 -4.05215,18.54639 -4.0002,7.84456 -12.05256,12.83182 -4.51971,2.90924 -11.3772,4.31191 -6.80554,1.35072 -16.57226,1.35072 h -20.00102 z"
         style="font-style:normal;font-variant:normal;font-weight:normal;font-stretch:normal;font-size:106.395px;font-family:'Humnst777 BT';-inkscape-font-specification:'Humnst777 BT';fill:#003d59;fill-opacity:1;stroke-width:1.24681"
         id="path859" />
      <path
         d="m 698.04539,376.94539 16.52032,16.05276 h -16.83202 l -12.31231,-12.72792 q -0.51951,0 -1.45462,0.0519 -0.93511,0.0519 -1.35072,0.0519 -17.09177,0 -26.49485,-10.02648 -9.35112,-10.02648 -9.35112,-28.31312 0,-18.02689 9.29917,-28.26117 9.35113,-10.23428 25.61169,-10.23428 16.26056,0 25.61169,10.28623 9.40307,10.28624 9.40307,28.20922 0,12.72792 -4.62361,21.35173 -4.57166,8.62381 -14.02669,13.55913 z m -16.36446,-62.44472 q -9.03942,0 -14.59814,7.4809 -5.50677,7.42895 -5.50677,19.84516 0,12.46816 5.50677,20.00101 5.50677,7.4809 14.59814,7.4809 9.09137,0 14.65009,-7.53285 5.55873,-7.53285 5.55873,-19.94906 0,-12.36426 -5.55873,-19.84516 -5.55872,-7.4809 -14.65009,-7.4809 z"
         style="font-style:normal;font-variant:normal;font-weight:normal;font-stretch:normal;font-size:106.395px;font-family:'Humnst777 BT';-inkscape-font-specification:'Humnst777 BT';fill:#003d59;fill-opacity:1;stroke-width:1.24681"
         id="path861" />
      <path
         d="m 729.34339,325.56118 v 31.8121 c 0,14.78891 6.3837,22.34295 18.29994,22.34295 8.5116,0 14.57612,-3.61743 18.51273,-11.06508 v 10.32032 h 9.04358 v -53.41029 h -9.89474 v 24.68364 c 0,13.83135 -5.10696,20.95981 -14.25693,20.95981 -8.19241,0 -11.80984,-5.21335 -11.80984,-16.06564 v -29.57781 z"
         style="font-style:normal;font-variant:normal;font-weight:normal;font-stretch:normal;font-family:'Humanist 777';-inkscape-font-specification:'Humanist 777, '"
         id="path863" />
      <path
         d="m 832.54653,346.52099 c 0,-14.7889 -6.59649,-22.23655 -19.89586,-22.23655 -6.4901,0 -12.34182,1.17034 -17.87436,3.83022 l 0.10639,8.08602 c 5.31975,-2.97906 10.32032,-4.46859 14.8953,-4.46859 8.29881,0 13.19298,4.89417 13.19298,13.19298 v 1.06395 h -6.91567 c -18.19355,0 -27.6627,6.49009 -27.6627,17.98075 0,9.25637 6.80928,15.74646 17.0232,15.74646 8.08602,0 14.15053,-3.19185 18.29994,-9.68194 v 8.93718 h 8.83078 z m -15.85285,6.06452 h 6.2773 v 3.93661 c 0,10.00113 -6.17091,16.06565 -15.00169,16.06565 -5.85173,0 -9.68195,-3.93662 -9.68195,-9.14997 0,-6.91568 6.3837,-10.85229 18.40634,-10.85229 z"
         style="font-style:normal;font-variant:normal;font-weight:normal;font-stretch:normal;font-family:'Humanist 777';-inkscape-font-specification:'Humanist 777, '"
         id="path865" />
      <path
         d="m 848.61216,299.4944 v 79.47707 h 9.89474 V 299.4944 Z"
         style="font-style:normal;font-variant:normal;font-weight:normal;font-stretch:normal;font-family:'Humanist 777';-inkscape-font-specification:'Humanist 777, '"
         id="path867" />
      <path
         d="m 875.4235,300.98393 v 10.00113 h 9.57555 v -10.00113 z m -0.21279,24.57725 v 53.41029 h 9.89473 v -53.41029 z"
         style="font-style:normal;font-variant:normal;font-weight:normal;font-stretch:normal;font-family:'Humanist 777';-inkscape-font-specification:'Humanist 777, '"
         id="path869" />
      <path
         d="m 916.49176,309.06995 -9.57555,3.29825 v 13.19298 h -11.06508 v 7.55404 h 10.74589 v 28.62026 c 0,12.55461 3.93662,18.19354 15.10809,18.19354 2.65988,0 5.31975,-0.31918 8.08602,-1.06395 l -0.10639,-7.76683 c -2.1279,0.74476 -3.93662,1.17034 -5.42615,1.17034 -5.85172,0 -7.76683,-3.61743 -7.76683,-11.49066 v -27.6627 h 12.7674 v -7.55404 h -12.7674 z"
         style="font-style:normal;font-variant:normal;font-weight:normal;font-stretch:normal;font-family:'Humanist 777';-inkscape-font-specification:'Humanist 777, '"
         id="path871" />
      <path
         d="m 933.72767,325.56118 20.10865,55.43179 c -3.29824,8.618 -6.59649,12.8738 -11.70345,12.8738 -1.48953,0 -2.97906,-0.21279 -4.68138,-0.63837 l -0.85116,8.19241 c 2.44709,0.53198 4.68138,0.74477 6.4901,0.74477 9.57555,0 14.57611,-5.53254 18.93831,-17.76797 l 21.1726,-58.83643 h -10.00113 l -14.36332,43.83474 -14.46972,-43.83474 z"
         style="font-style:normal;font-variant:normal;font-weight:normal;font-stretch:normal;font-family:'Humanist 777';-inkscape-font-specification:'Humanist 777, '"
         id="path873" />
      <path
         d="m 1022.7852,305.14955 h 14.5462 v 29.87164 h 28.7288 v -29.87164 h 14.5981 v 73.82192 h -14.5981 v -32.67698 h -28.7288 v 32.67698 h -14.5462 z"
         style="font-style:normal;font-variant:normal;font-weight:normal;font-stretch:normal;font-size:106.395px;font-family:'Humnst777 BT';-inkscape-font-specification:'Humnst777 BT';fill:#003d59;fill-opacity:1;stroke-width:1.24681"
         id="path875" />
      <path
         d="m 1095.8798,325.04666 h 13.9228 v 28.62482 q 0,7.4809 2.5976,11.01355 2.5975,3.53264 8.0523,3.53264 6.1821,0 9.4031,-4.88336 3.2729,-4.93531 3.2729,-14.23449 v -24.05316 h 13.9228 v 53.92481 h -12.676 v -10.33819 q -3.0131,5.50677 -7.8965,8.36406 -4.8314,2.80534 -11.2214,2.80534 -9.5069,0 -14.4422,-5.87043 -4.9354,-5.92238 -4.9354,-17.29958 z"
         style="font-style:normal;font-variant:normal;font-weight:normal;font-stretch:normal;font-size:106.395px;font-family:'Humnst777 BT';-inkscape-font-specification:'Humnst777 BT';fill:#003d59;fill-opacity:1;stroke-width:1.24681"
         id="path877" />
      <path
         d="m 1190.7937,334.08608 q -6.3899,0 -10.1303,4.72751 -3.6885,4.72751 -3.6885,12.93572 0,8.0004 3.6365,12.72792 3.6366,4.72751 9.7667,4.72751 5.8705,0 9.4031,-4.67556 3.5846,-4.67556 3.5846,-12.46817 0,-8.2082 -3.4807,-13.09157 -3.4287,-4.88336 -9.0914,-4.88336 z m -27.7416,-34.70306 h 13.9228 v 33.71599 q 3.0651,-4.62361 7.5328,-7.01334 4.5197,-2.44168 10.2343,-2.44168 10.4421,0 16.7281,7.4809 6.338,7.4809 6.338,19.94906 0,12.77987 -6.4419,20.78027 -6.4419,7.94846 -16.6242,7.94846 -6.286,0 -11.2213,-3.01314 -4.9354,-3.01314 -7.9485,-8.67577 v 10.8577 h -12.5201 z"
         style="font-style:normal;font-variant:normal;font-weight:normal;font-stretch:normal;font-size:106.395px;font-family:'Humnst777 BT';-inkscape-font-specification:'Humnst777 BT';fill:#003d59;fill-opacity:1;stroke-width:1.24681"
         id="path879" />
    </g>
  </g>
</svg>
